<svg xmlns="http://www.w3.org/2000/svg" width="800" height="900" viewBox="0 0 800 900"><defs>
  <radialGradient id="vignette" cx="50%" cy="48%" r="70%">
    <stop offset="55%" stop-color="#000" stop-opacity="0"/><stop offset="100%" stop-color="#000" stop-opacity="0.55"/>
  </radialGradient>
  <radialGradient id="light" cx="35%" cy="25%" r="75%">
    <stop offset="0%" stop-color="#fff5e0" stop-opacity="0.22"/><stop offset="60%" stop-color="#fff5e0" stop-opacity="0"/>
  </radialGradient>
  <filter id="shadow" x="-30%" y="-30%" width="160%" height="160%"><feGaussianBlur stdDeviation="22"/></filter>
  <filter id="soft" x="-20%" y="-20%" width="140%" height="140%"><feGaussianBlur stdDeviation="3"/></filter>
    <linearGradient id="board" x1="0" y1="0" x2="1" y2="1"><stop offset="0%" stop-color="#3a3c40"/><stop offset="100%" stop-color="#1c1d20"/></linearGradient>
    <linearGradient id="chop" x1="0" x2="1"><stop offset="0%" stop-color="#6b3f22"/><stop offset="50%" stop-color="#a86b3e"/><stop offset="100%" stop-color="#6b3f22"/></linearGradient></defs>
    <rect width="800" height="900" fill="#3b2718"/><rect x="0" y="0" width="800" height="148" fill="#2b1c12" opacity="0.35"/><rect x="0" y="148" width="800" height="2" fill="#000" opacity="0.25"/><path d="M0,84.5 C213.9,88.4 528.6,77.2 800,84.9" stroke="#000" stroke-opacity="0.1" stroke-width="1.9" fill="none"/><path d="M0,38.1 C295.0,41.6 571.8,34.0 800,33.5" stroke="#000" stroke-opacity="0.1" stroke-width="2.4" fill="none"/><path d="M0,42.0 C206.1,38.6 587.8,35.9 800,37.6" stroke="#000" stroke-opacity="0.1" stroke-width="1.4" fill="none"/><path d="M0,59.6 C215.6,51.9 591.1,64.9 800,58.4" stroke="#000" stroke-opacity="0.1" stroke-width="2.8" fill="none"/><path d="M0,53.6 C243.8,61.7 525.6,53.3 800,52.5" stroke="#000" stroke-opacity="0.1" stroke-width="1.7" fill="none"/><path d="M0,90.3 C221.6,81.6 599.6,88.4 800,92.8" stroke="#000" stroke-opacity="0.1" stroke-width="2.4" fill="none"/><path d="M0,67.7 C230.5,70.2 552.7,62.5 800,63.4" stroke="#000" stroke-opacity="0.1" stroke-width="2.0" fill="none"/><rect x="0" y="150" width="800" height="148" fill="#2b1c12" opacity="0.35"/><rect x="0" y="298" width="800" height="2" fill="#000" opacity="0.25"/><path d="M0,190.6 C227.0,191.3 588.3,184.9 800,189.2" stroke="#000" stroke-opacity="0.1" stroke-width="2.3" fill="none"/><path d="M0,198.4 C275.3,194.6 536.1,195.8 800,194.2" stroke="#000" stroke-opacity="0.1" stroke-width="2.2" fill="none"/><path d="M0,204.7 C223.5,200.1 548.0,201.2 800,203.7" stroke="#000" stroke-opacity="0.1" stroke-width="2.1" fill="none"/><path d="M0,221.9 C261.1,229.9 585.4,230.2 800,224.0" stroke="#000" stroke-opacity="0.1" stroke-width="1.7" fill="none"/><path d="M0,223.3 C254.3,219.3 584.6,216.9 800,226.4" stroke="#000" stroke-opacity="0.1" stroke-width="1.6" fill="none"/><path d="M0,178.7 C204.4,169.7 560.5,186.4 800,178.1" stroke="#000" stroke-opacity="0.1" stroke-width="1.4" fill="none"/><path d="M0,193.3 C261.5,194.9 516.1,201.4 800,193.4" stroke="#000" stroke-opacity="0.1" stroke-width="2.5" fill="none"/><rect x="0" y="300" width="800" height="148" fill="#2b1c12" opacity="0.35"/><rect x="0" y="448" width="800" height="2" fill="#000" opacity="0.25"/><path d="M0,432.3 C240.1,433.7 541.6,437.3 800,428.6" stroke="#000" stroke-opacity="0.1" stroke-width="2.4" fill="none"/><path d="M0,338.8 C218.2,333.2 500.1,334.0 800,343.0" stroke="#000" stroke-opacity="0.1" stroke-width="1.2" fill="none"/><path d="M0,422.7 C282.4,428.9 551.7,429.5 800,421.1" stroke="#000" stroke-opacity="0.1" stroke-width="1.1" fill="none"/><path d="M0,317.9 C248.5,314.7 541.3,312.4 800,320.4" stroke="#000" stroke-opacity="0.1" stroke-width="1.9" fill="none"/><path d="M0,380.6 C200.1,383.5 507.5,373.7 800,378.2" stroke="#000" stroke-opacity="0.1" stroke-width="2.5" fill="none"/><path d="M0,347.3 C261.7,350.4 595.4,348.6 800,350.6" stroke="#000" stroke-opacity="0.1" stroke-width="3.0" fill="none"/><path d="M0,369.0 C202.7,368.7 549.0,371.2 800,372.1" stroke="#000" stroke-opacity="0.1" stroke-width="1.1" fill="none"/><rect x="0" y="450" width="800" height="148" fill="#4a311f" opacity="0.35"/><rect x="0" y="598" width="800" height="2" fill="#000" opacity="0.25"/><path d="M0,552.8 C211.1,559.3 510.7,555.1 800,553.1" stroke="#000" stroke-opacity="0.1" stroke-width="1.8" fill="none"/><path d="M0,546.3 C211.5,546.9 589.0,552.8 800,546.9" stroke="#000" stroke-opacity="0.1" stroke-width="1.7" fill="none"/><path d="M0,496.5 C233.9,499.1 566.2,499.3 800,499.6" stroke="#000" stroke-opacity="0.1" stroke-width="1.2" fill="none"/><path d="M0,550.1 C268.3,544.2 529.6,548.7 800,547.7" stroke="#000" stroke-opacity="0.1" stroke-width="3.0" fill="none"/><path d="M0,513.8 C295.0,521.3 577.7,519.1 800,511.0" stroke="#000" stroke-opacity="0.1" stroke-width="2.4" fill="none"/><path d="M0,483.0 C275.3,480.2 568.2,474.4 800,483.7" stroke="#000" stroke-opacity="0.1" stroke-width="2.4" fill="none"/><path d="M0,487.2 C249.0,481.4 523.5,488.2 800,491.9" stroke="#000" stroke-opacity="0.1" stroke-width="1.7" fill="none"/><rect x="0" y="600" width="800" height="148" fill="#2b1c12" opacity="0.35"/><rect x="0" y="748" width="800" height="2" fill="#000" opacity="0.25"/><path d="M0,657.6 C282.8,665.0 501.6,651.5 800,662.4" stroke="#000" stroke-opacity="0.1" stroke-width="1.0" fill="none"/><path d="M0,676.8 C265.3,679.1 544.5,675.2 800,680.0" stroke="#000" stroke-opacity="0.1" stroke-width="1.2" fill="none"/><path d="M0,627.1 C200.5,626.1 588.1,633.7 800,623.2" stroke="#000" stroke-opacity="0.1" stroke-width="2.5" fill="none"/><path d="M0,698.2 C209.8,705.6 524.5,691.5 800,694.3" stroke="#000" stroke-opacity="0.1" stroke-width="3.0" fill="none"/><path d="M0,641.4 C269.6,648.2 553.5,646.1 800,641.7" stroke="#000" stroke-opacity="0.1" stroke-width="1.5" fill="none"/><path d="M0,709.3 C260.3,717.7 534.0,717.9 800,711.4" stroke="#000" stroke-opacity="0.1" stroke-width="2.7" fill="none"/><path d="M0,684.8 C297.0,685.3 565.7,680.5 800,684.7" stroke="#000" stroke-opacity="0.1" stroke-width="2.2" fill="none"/><rect x="0" y="750" width="800" height="148" fill="#2b1c12" opacity="0.35"/><rect x="0" y="898" width="800" height="2" fill="#000" opacity="0.25"/><path d="M0,813.2 C218.8,804.7 517.1,805.6 800,809.3" stroke="#000" stroke-opacity="0.1" stroke-width="2.5" fill="none"/><path d="M0,882.2 C298.2,891.0 513.2,883.8 800,885.5" stroke="#000" stroke-opacity="0.1" stroke-width="2.9" fill="none"/><path d="M0,855.6 C200.6,861.5 531.7,854.8 800,859.6" stroke="#000" stroke-opacity="0.1" stroke-width="1.4" fill="none"/><path d="M0,843.1 C266.8,845.8 558.9,845.7 800,842.0" stroke="#000" stroke-opacity="0.1" stroke-width="2.7" fill="none"/><path d="M0,835.3 C247.7,840.4 549.9,838.4 800,833.4" stroke="#000" stroke-opacity="0.1" stroke-width="1.3" fill="none"/><path d="M0,854.5 C241.1,853.8 535.0,854.1 800,855.1" stroke="#000" stroke-opacity="0.1" stroke-width="1.9" fill="none"/><path d="M0,826.6 C283.7,832.3 533.0,817.7 800,824.7" stroke="#000" stroke-opacity="0.1" stroke-width="2.7" fill="none"/>
    <g transform="rotate(-12 400 450)">
      <rect x="70" y="170" width="660" height="560" rx="26" fill="#000" opacity="0.5" filter="url(#shadow)"/>
      <rect x="60" y="150" width="660" height="560" rx="26" fill="url(#board)"/>
      <rect x="60" y="150" width="660" height="560" rx="26" fill="none" stroke="#55585d" stroke-width="3" opacity="0.6"/>
    </g>
    <g transform="rotate(-12 225 286)"><rect x="136" y="254" width="190" height="92" rx="40" fill="#000" opacity="0.4" filter="url(#soft)"/><rect x="130" y="250" width="190" height="86" rx="39.090909090909086" fill="#f5f2ea"/><ellipse cx="208.1" cy="329.8" rx="5" ry="3" fill="#fff" stroke="#ddd6c6" stroke-width="1" transform="rotate(42.8 225.0 293.0)" opacity="0.9"/><ellipse cx="258.6" cy="310.9" rx="5" ry="3" fill="#fff" stroke="#ddd6c6" stroke-width="1" transform="rotate(21.3 225.0 293.0)" opacity="0.9"/><ellipse cx="236.9" cy="273.2" rx="5" ry="3" fill="#fff" stroke="#ddd6c6" stroke-width="1" transform="rotate(94.9 225.0 293.0)" opacity="0.9"/><ellipse cx="149.1" cy="328.5" rx="5" ry="3" fill="#fff" stroke="#ddd6c6" stroke-width="1" transform="rotate(3.5 225.0 293.0)" opacity="0.9"/><ellipse cx="301.5" cy="285.1" rx="5" ry="3" fill="#fff" stroke="#ddd6c6" stroke-width="1" transform="rotate(84.9 225.0 293.0)" opacity="0.9"/><ellipse cx="210.6" cy="265.9" rx="5" ry="3" fill="#fff" stroke="#ddd6c6" stroke-width="1" transform="rotate(133.3 225.0 293.0)" opacity="0.9"/><ellipse cx="159.0" cy="294.8" rx="5" ry="3" fill="#fff" stroke="#ddd6c6" stroke-width="1" transform="rotate(131.4 225.0 293.0)" opacity="0.9"/><ellipse cx="247.7" cy="306.3" rx="5" ry="3" fill="#fff" stroke="#ddd6c6" stroke-width="1" transform="rotate(19.5 225.0 293.0)" opacity="0.9"/><ellipse cx="279.0" cy="288.9" rx="5" ry="3" fill="#fff" stroke="#ddd6c6" stroke-width="1" transform="rotate(146.8 225.0 293.0)" opacity="0.9"/><ellipse cx="213.7" cy="257.1" rx="5" ry="3" fill="#fff" stroke="#ddd6c6" stroke-width="1" transform="rotate(13.9 225.0 293.0)" opacity="0.9"/><ellipse cx="259.0" cy="265.2" rx="5" ry="3" fill="#fff" stroke="#ddd6c6" stroke-width="1" transform="rotate(98.1 225.0 293.0)" opacity="0.9"/><ellipse cx="144.5" cy="320.8" rx="5" ry="3" fill="#fff" stroke="#ddd6c6" stroke-width="1" transform="rotate(78.4 225.0 293.0)" opacity="0.9"/><ellipse cx="169.2" cy="256.5" rx="5" ry="3" fill="#fff" stroke="#ddd6c6" stroke-width="1" transform="rotate(126.0 225.0 293.0)" opacity="0.9"/><ellipse cx="243.6" cy="300.3" rx="5" ry="3" fill="#fff" stroke="#ddd6c6" stroke-width="1" transform="rotate(23.4 225.0 293.0)" opacity="0.9"/><ellipse cx="250.7" cy="268.0" rx="5" ry="3" fill="#fff" stroke="#ddd6c6" stroke-width="1" transform="rotate(112.1 225.0 293.0)" opacity="0.9"/><ellipse cx="233.3" cy="281.8" rx="5" ry="3" fill="#fff" stroke="#ddd6c6" stroke-width="1" transform="rotate(53.9 225.0 293.0)" opacity="0.9"/><ellipse cx="169.8" cy="325.3" rx="5" ry="3" fill="#fff" stroke="#ddd6c6" stroke-width="1" transform="rotate(38.4 225.0 293.0)" opacity="0.9"/><ellipse cx="272.4" cy="262.8" rx="5" ry="3" fill="#fff" stroke="#ddd6c6" stroke-width="1" transform="rotate(13.8 225.0 293.0)" opacity="0.9"/><ellipse cx="289.9" cy="322.3" rx="5" ry="3" fill="#fff" stroke="#ddd6c6" stroke-width="1" transform="rotate(172.8 225.0 293.0)" opacity="0.9"/><ellipse cx="260.6" cy="322.5" rx="5" ry="3" fill="#fff" stroke="#ddd6c6" stroke-width="1" transform="rotate(102.5 225.0 293.0)" opacity="0.9"/><ellipse cx="282.3" cy="269.0" rx="5" ry="3" fill="#fff" stroke="#ddd6c6" stroke-width="1" transform="rotate(88.7 225.0 293.0)" opacity="0.9"/><ellipse cx="216.6" cy="281.4" rx="5" ry="3" fill="#fff" stroke="#ddd6c6" stroke-width="1" transform="rotate(125.6 225.0 293.0)" opacity="0.9"/><ellipse cx="155.1" cy="307.3" rx="5" ry="3" fill="#fff" stroke="#ddd6c6" stroke-width="1" transform="rotate(97.8 225.0 293.0)" opacity="0.9"/><ellipse cx="163.7" cy="267.1" rx="5" ry="3" fill="#fff" stroke="#ddd6c6" stroke-width="1" transform="rotate(152.5 225.0 293.0)" opacity="0.9"/><ellipse cx="245.6" cy="311.2" rx="5" ry="3" fill="#fff" stroke="#ddd6c6" stroke-width="1" transform="rotate(72.8 225.0 293.0)" opacity="0.9"/><ellipse cx="289.4" cy="269.1" rx="5" ry="3" fill="#fff" stroke="#ddd6c6" stroke-width="1" transform="rotate(17.2 225.0 293.0)" opacity="0.9"/><ellipse cx="233.6" cy="280.3" rx="5" ry="3" fill="#fff" stroke="#ddd6c6" stroke-width="1" transform="rotate(158.1 225.0 293.0)" opacity="0.9"/><ellipse cx="199.9" cy="260.6" rx="5" ry="3" fill="#fff" stroke="#ddd6c6" stroke-width="1" transform="rotate(41.5 225.0 293.0)" opacity="0.9"/><ellipse cx="224.9" cy="297.9" rx="5" ry="3" fill="#fff" stroke="#ddd6c6" stroke-width="1" transform="rotate(91.1 225.0 293.0)" opacity="0.9"/><ellipse cx="155.0" cy="312.4" rx="5" ry="3" fill="#fff" stroke="#ddd6c6" stroke-width="1" transform="rotate(69.4 225.0 293.0)" opacity="0.9"/><ellipse cx="263.6" cy="269.6" rx="5" ry="3" fill="#fff" stroke="#ddd6c6" stroke-width="1" transform="rotate(90.9 225.0 293.0)" opacity="0.9"/><ellipse cx="269.9" cy="301.8" rx="5" ry="3" fill="#fff" stroke="#ddd6c6" stroke-width="1" transform="rotate(175.4 225.0 293.0)" opacity="0.9"/><ellipse cx="140.8" cy="276.8" rx="5" ry="3" fill="#fff" stroke="#ddd6c6" stroke-width="1" transform="rotate(93.0 225.0 293.0)" opacity="0.9"/><ellipse cx="200.3" cy="302.3" rx="5" ry="3" fill="#fff" stroke="#ddd6c6" stroke-width="1" transform="rotate(50.9 225.0 293.0)" opacity="0.9"/><ellipse cx="180.5" cy="264.5" rx="5" ry="3" fill="#fff" stroke="#ddd6c6" stroke-width="1" transform="rotate(154.7 225.0 293.0)" opacity="0.9"/><ellipse cx="290.2" cy="288.9" rx="5" ry="3" fill="#fff" stroke="#ddd6c6" stroke-width="1" transform="rotate(108.3 225.0 293.0)" opacity="0.9"/><ellipse cx="269.8" cy="293.1" rx="5" ry="3" fill="#fff" stroke="#ddd6c6" stroke-width="1" transform="rotate(142.3 225.0 293.0)" opacity="0.9"/><ellipse cx="276.1" cy="268.4" rx="5" ry="3" fill="#fff" stroke="#ddd6c6" stroke-width="1" transform="rotate(134.1 225.0 293.0)" opacity="0.9"/><ellipse cx="149.6" cy="259.6" rx="5" ry="3" fill="#fff" stroke="#ddd6c6" stroke-width="1" transform="rotate(17.8 225.0 293.0)" opacity="0.9"/><ellipse cx="209.5" cy="279.5" rx="5" ry="3" fill="#fff" stroke="#ddd6c6" stroke-width="1" transform="rotate(46.0 225.0 293.0)" opacity="0.9"/><path d="M120,270 Q225,220 330,270 Q225,310 120,270Z" fill="#f08a52"/><path d="M148,248 q12,24 4,50" stroke="#ffe0cc" stroke-width="7" fill="none" stroke-linecap="round" opacity="0.9"/><path d="M178,248 q12,24 4,50" stroke="#ffe0cc" stroke-width="7" fill="none" stroke-linecap="round" opacity="0.9"/><path d="M208,248 q12,24 4,50" stroke="#ffe0cc" stroke-width="7" fill="none" stroke-linecap="round" opacity="0.9"/><path d="M238,248 q12,24 4,50" stroke="#ffe0cc" stroke-width="7" fill="none" stroke-linecap="round" opacity="0.9"/><path d="M268,248 q12,24 4,50" stroke="#ffe0cc" stroke-width="7" fill="none" stroke-linecap="round" opacity="0.9"/><path d="M298,248 q12,24 4,50" stroke="#ffe0cc" stroke-width="7" fill="none" stroke-linecap="round" opacity="0.9"/><path d="M150,254 Q225,234 300,254" stroke="#fff" stroke-width="5" fill="none" opacity="0.45"/></g><g transform="rotate(-12 455 346)"><rect x="366" y="314" width="190" height="92" rx="40" fill="#000" opacity="0.4" filter="url(#soft)"/><rect x="360" y="310" width="190" height="86" rx="39.090909090909086" fill="#f5f2ea"/><ellipse cx="449.2" cy="326.6" rx="5" ry="3" fill="#fff" stroke="#ddd6c6" stroke-width="1" transform="rotate(92.9 455.0 353.0)" opacity="0.9"/><ellipse cx="410.7" cy="375.1" rx="5" ry="3" fill="#fff" stroke="#ddd6c6" stroke-width="1" transform="rotate(19.2 455.0 353.0)" opacity="0.9"/><ellipse cx="447.3" cy="361.5" rx="5" ry="3" fill="#fff" stroke="#ddd6c6" stroke-width="1" transform="rotate(133.1 455.0 353.0)" opacity="0.9"/><ellipse cx="451.5" cy="376.8" rx="5" ry="3" fill="#fff" stroke="#ddd6c6" stroke-width="1" transform="rotate(61.1 455.0 353.0)" opacity="0.9"/><ellipse cx="441.5" cy="374.7" rx="5" ry="3" fill="#fff" stroke="#ddd6c6" stroke-width="1" transform="rotate(114.2 455.0 353.0)" opacity="0.9"/><ellipse cx="513.0" cy="319.3" rx="5" ry="3" fill="#fff" stroke="#ddd6c6" stroke-width="1" transform="rotate(66.2 455.0 353.0)" opacity="0.9"/><ellipse cx="461.9" cy="340.6" rx="5" ry="3" fill="#fff" stroke="#ddd6c6" stroke-width="1" transform="rotate(40.3 455.0 353.0)" opacity="0.9"/><ellipse cx="432.0" cy="361.9" rx="5" ry="3" fill="#fff" stroke="#ddd6c6" stroke-width="1" transform="rotate(135.0 455.0 353.0)" opacity="0.9"/><ellipse cx="533.3" cy="333.9" rx="5" ry="3" fill="#fff" stroke="#ddd6c6" stroke-width="1" transform="rotate(127.2 455.0 353.0)" opacity="0.9"/><ellipse cx="436.4" cy="333.5" rx="5" ry="3" fill="#fff" stroke="#ddd6c6" stroke-width="1" transform="rotate(101.2 455.0 353.0)" opacity="0.9"/><ellipse cx="433.2" cy="329.2" rx="5" ry="3" fill="#fff" stroke="#ddd6c6" stroke-width="1" transform="rotate(139.0 455.0 353.0)" opacity="0.9"/><ellipse cx="459.7" cy="322.9" rx="5" ry="3" fill="#fff" stroke="#ddd6c6" stroke-width="1" transform="rotate(42.6 455.0 353.0)" opacity="0.9"/><ellipse cx="397.9" cy="363.9" rx="5" ry="3" fill="#fff" stroke="#ddd6c6" stroke-width="1" transform="rotate(39.0 455.0 353.0)" opacity="0.9"/><ellipse cx="378.6" cy="363.3" rx="5" ry="3" fill="#fff" stroke="#ddd6c6" stroke-width="1" transform="rotate(67.8 455.0 353.0)" opacity="0.9"/><ellipse cx="503.7" cy="357.5" rx="5" ry="3" fill="#fff" stroke="#ddd6c6" stroke-width="1" transform="rotate(23.8 455.0 353.0)" opacity="0.9"/><ellipse cx="490.2" cy="338.3" rx="5" ry="3" fill="#fff" stroke="#ddd6c6" stroke-width="1" transform="rotate(125.4 455.0 353.0)" opacity="0.9"/><ellipse cx="429.5" cy="387.8" rx="5" ry="3" fill="#fff" stroke="#ddd6c6" stroke-width="1" transform="rotate(7.3 455.0 353.0)" opacity="0.9"/><ellipse cx="464.1" cy="326.2" rx="5" ry="3" fill="#fff" stroke="#ddd6c6" stroke-width="1" transform="rotate(79.6 455.0 353.0)" opacity="0.9"/><ellipse cx="440.2" cy="317.3" rx="5" ry="3" fill="#fff" stroke="#ddd6c6" stroke-width="1" transform="rotate(14.3 455.0 353.0)" opacity="0.9"/><ellipse cx="433.4" cy="355.9" rx="5" ry="3" fill="#fff" stroke="#ddd6c6" stroke-width="1" transform="rotate(80.3 455.0 353.0)" opacity="0.9"/><ellipse cx="448.5" cy="361.4" rx="5" ry="3" fill="#fff" stroke="#ddd6c6" stroke-width="1" transform="rotate(13.2 455.0 353.0)" opacity="0.9"/><ellipse cx="531.5" cy="377.7" rx="5" ry="3" fill="#fff" stroke="#ddd6c6" stroke-width="1" transform="rotate(175.4 455.0 353.0)" opacity="0.9"/><ellipse cx="514.7" cy="327.5" rx="5" ry="3" fill="#fff" stroke="#ddd6c6" stroke-width="1" transform="rotate(141.6 455.0 353.0)" opacity="0.9"/><ellipse cx="532.6" cy="385.6" rx="5" ry="3" fill="#fff" stroke="#ddd6c6" stroke-width="1" transform="rotate(137.8 455.0 353.0)" opacity="0.9"/><ellipse cx="506.1" cy="349.0" rx="5" ry="3" fill="#fff" stroke="#ddd6c6" stroke-width="1" transform="rotate(43.1 455.0 353.0)" opacity="0.9"/><ellipse cx="535.5" cy="327.6" rx="5" ry="3" fill="#fff" stroke="#ddd6c6" stroke-width="1" transform="rotate(121.1 455.0 353.0)" opacity="0.9"/><ellipse cx="464.7" cy="364.9" rx="5" ry="3" fill="#fff" stroke="#ddd6c6" stroke-width="1" transform="rotate(74.5 455.0 353.0)" opacity="0.9"/><ellipse cx="422.6" cy="380.7" rx="5" ry="3" fill="#fff" stroke="#ddd6c6" stroke-width="1" transform="rotate(48.2 455.0 353.0)" opacity="0.9"/><ellipse cx="501.1" cy="361.1" rx="5" ry="3" fill="#fff" stroke="#ddd6c6" stroke-width="1" transform="rotate(68.1 455.0 353.0)" opacity="0.9"/><ellipse cx="399.9" cy="342.8" rx="5" ry="3" fill="#fff" stroke="#ddd6c6" stroke-width="1" transform="rotate(11.7 455.0 353.0)" opacity="0.9"/><ellipse cx="402.9" cy="345.9" rx="5" ry="3" fill="#fff" stroke="#ddd6c6" stroke-width="1" transform="rotate(95.7 455.0 353.0)" opacity="0.9"/><ellipse cx="506.8" cy="326.0" rx="5" ry="3" fill="#fff" stroke="#ddd6c6" stroke-width="1" transform="rotate(158.5 455.0 353.0)" opacity="0.9"/><ellipse cx="413.0" cy="376.3" rx="5" ry="3" fill="#fff" stroke="#ddd6c6" stroke-width="1" transform="rotate(131.9 455.0 353.0)" opacity="0.9"/><ellipse cx="457.8" cy="353.8" rx="5" ry="3" fill="#fff" stroke="#ddd6c6" stroke-width="1" transform="rotate(127.4 455.0 353.0)" opacity="0.9"/><ellipse cx="454.0" cy="386.1" rx="5" ry="3" fill="#fff" stroke="#ddd6c6" stroke-width="1" transform="rotate(42.7 455.0 353.0)" opacity="0.9"/><ellipse cx="463.8" cy="325.2" rx="5" ry="3" fill="#fff" stroke="#ddd6c6" stroke-width="1" transform="rotate(89.9 455.0 353.0)" opacity="0.9"/><ellipse cx="385.8" cy="316.6" rx="5" ry="3" fill="#fff" stroke="#ddd6c6" stroke-width="1" transform="rotate(6.0 455.0 353.0)" opacity="0.9"/><ellipse cx="533.1" cy="339.0" rx="5" ry="3" fill="#fff" stroke="#ddd6c6" stroke-width="1" transform="rotate(166.4 455.0 353.0)" opacity="0.9"/><ellipse cx="463.6" cy="390.0" rx="5" ry="3" fill="#fff" stroke="#ddd6c6" stroke-width="1" transform="rotate(13.2 455.0 353.0)" opacity="0.9"/><ellipse cx="524.1" cy="356.0" rx="5" ry="3" fill="#fff" stroke="#ddd6c6" stroke-width="1" transform="rotate(107.6 455.0 353.0)" opacity="0.9"/><path d="M350,330 Q455,280 560,330 Q455,370 350,330Z" fill="#b51f36"/><path d="M355,330 Q455,290 555,330" fill="#d0344c" opacity="0.8"/><path d="M380,314 Q455,296 530,314" stroke="#fff" stroke-width="5" fill="none" opacity="0.35"/></g><g transform="rotate(-12 265 476)"><rect x="176" y="444" width="190" height="92" rx="40" fill="#000" opacity="0.4" filter="url(#soft)"/><rect x="170" y="440" width="190" height="86" rx="39.090909090909086" fill="#f5f2ea"/><ellipse cx="274.9" cy="491.8" rx="5" ry="3" fill="#fff" stroke="#ddd6c6" stroke-width="1" transform="rotate(72.6 265.0 483.0)" opacity="0.9"/><ellipse cx="261.6" cy="475.6" rx="5" ry="3" fill="#fff" stroke="#ddd6c6" stroke-width="1" transform="rotate(178.2 265.0 483.0)" opacity="0.9"/><ellipse cx="284.8" cy="490.9" rx="5" ry="3" fill="#fff" stroke="#ddd6c6" stroke-width="1" transform="rotate(19.1 265.0 483.0)" opacity="0.9"/><ellipse cx="224.8" cy="468.8" rx="5" ry="3" fill="#fff" stroke="#ddd6c6" stroke-width="1" transform="rotate(62.6 265.0 483.0)" opacity="0.9"/><ellipse cx="337.3" cy="503.8" rx="5" ry="3" fill="#fff" stroke="#ddd6c6" stroke-width="1" transform="rotate(103.4 265.0 483.0)" opacity="0.9"/><ellipse cx="281.1" cy="516.7" rx="5" ry="3" fill="#fff" stroke="#ddd6c6" stroke-width="1" transform="rotate(170.6 265.0 483.0)" opacity="0.9"/><ellipse cx="253.9" cy="456.5" rx="5" ry="3" fill="#fff" stroke="#ddd6c6" stroke-width="1" transform="rotate(139.8 265.0 483.0)" opacity="0.9"/><ellipse cx="291.9" cy="497.8" rx="5" ry="3" fill="#fff" stroke="#ddd6c6" stroke-width="1" transform="rotate(8.8 265.0 483.0)" opacity="0.9"/><ellipse cx="279.2" cy="462.1" rx="5" ry="3" fill="#fff" stroke="#ddd6c6" stroke-width="1" transform="rotate(26.9 265.0 483.0)" opacity="0.9"/><ellipse cx="314.7" cy="500.4" rx="5" ry="3" fill="#fff" stroke="#ddd6c6" stroke-width="1" transform="rotate(84.7 265.0 483.0)" opacity="0.9"/><ellipse cx="311.0" cy="474.0" rx="5" ry="3" fill="#fff" stroke="#ddd6c6" stroke-width="1" transform="rotate(67.8 265.0 483.0)" opacity="0.9"/><ellipse cx="306.5" cy="515.5" rx="5" ry="3" fill="#fff" stroke="#ddd6c6" stroke-width="1" transform="rotate(162.7 265.0 483.0)" opacity="0.9"/><ellipse cx="217.3" cy="498.1" rx="5" ry="3" fill="#fff" stroke="#ddd6c6" stroke-width="1" transform="rotate(159.7 265.0 483.0)" opacity="0.9"/><ellipse cx="350.0" cy="511.9" rx="5" ry="3" fill="#fff" stroke="#ddd6c6" stroke-width="1" transform="rotate(80.2 265.0 483.0)" opacity="0.9"/><ellipse cx="298.3" cy="460.5" rx="5" ry="3" fill="#fff" stroke="#ddd6c6" stroke-width="1" transform="rotate(48.9 265.0 483.0)" opacity="0.9"/><ellipse cx="204.3" cy="498.2" rx="5" ry="3" fill="#fff" stroke="#ddd6c6" stroke-width="1" transform="rotate(80.8 265.0 483.0)" opacity="0.9"/><ellipse cx="332.3" cy="466.8" rx="5" ry="3" fill="#fff" stroke="#ddd6c6" stroke-width="1" transform="rotate(46.2 265.0 483.0)" opacity="0.9"/><ellipse cx="330.5" cy="460.1" rx="5" ry="3" fill="#fff" stroke="#ddd6c6" stroke-width="1" transform="rotate(35.1 265.0 483.0)" opacity="0.9"/><ellipse cx="326.0" cy="498.9" rx="5" ry="3" fill="#fff" stroke="#ddd6c6" stroke-width="1" transform="rotate(38.7 265.0 483.0)" opacity="0.9"/><ellipse cx="264.6" cy="470.9" rx="5" ry="3" fill="#fff" stroke="#ddd6c6" stroke-width="1" transform="rotate(32.2 265.0 483.0)" opacity="0.9"/><ellipse cx="199.5" cy="493.3" rx="5" ry="3" fill="#fff" stroke="#ddd6c6" stroke-width="1" transform="rotate(132.4 265.0 483.0)" opacity="0.9"/><ellipse cx="249.1" cy="482.0" rx="5" ry="3" fill="#fff" stroke="#ddd6c6" stroke-width="1" transform="rotate(92.7 265.0 483.0)" opacity="0.9"/><ellipse cx="295.9" cy="514.0" rx="5" ry="3" fill="#fff" stroke="#ddd6c6" stroke-width="1" transform="rotate(67.3 265.0 483.0)" opacity="0.9"/><ellipse cx="194.8" cy="495.1" rx="5" ry="3" fill="#fff" stroke="#ddd6c6" stroke-width="1" transform="rotate(29.3 265.0 483.0)" opacity="0.9"/><ellipse cx="278.4" cy="471.7" rx="5" ry="3" fill="#fff" stroke="#ddd6c6" stroke-width="1" transform="rotate(105.5 265.0 483.0)" opacity="0.9"/><ellipse cx="198.9" cy="487.2" rx="5" ry="3" fill="#fff" stroke="#ddd6c6" stroke-width="1" transform="rotate(170.6 265.0 483.0)" opacity="0.9"/><ellipse cx="219.7" cy="448.5" rx="5" ry="3" fill="#fff" stroke="#ddd6c6" stroke-width="1" transform="rotate(166.4 265.0 483.0)" opacity="0.9"/><ellipse cx="280.5" cy="501.1" rx="5" ry="3" fill="#fff" stroke="#ddd6c6" stroke-width="1" transform="rotate(126.9 265.0 483.0)" opacity="0.9"/><ellipse cx="275.1" cy="509.4" rx="5" ry="3" fill="#fff" stroke="#ddd6c6" stroke-width="1" transform="rotate(18.9 265.0 483.0)" opacity="0.9"/><ellipse cx="346.4" cy="494.4" rx="5" ry="3" fill="#fff" stroke="#ddd6c6" stroke-width="1" transform="rotate(173.2 265.0 483.0)" opacity="0.9"/><ellipse cx="239.3" cy="464.3" rx="5" ry="3" fill="#fff" stroke="#ddd6c6" stroke-width="1" transform="rotate(57.2 265.0 483.0)" opacity="0.9"/><ellipse cx="325.8" cy="517.9" rx="5" ry="3" fill="#fff" stroke="#ddd6c6" stroke-width="1" transform="rotate(60.6 265.0 483.0)" opacity="0.9"/><ellipse cx="266.2" cy="477.7" rx="5" ry="3" fill="#fff" stroke="#ddd6c6" stroke-width="1" transform="rotate(102.2 265.0 483.0)" opacity="0.9"/><ellipse cx="314.6" cy="476.3" rx="5" ry="3" fill="#fff" stroke="#ddd6c6" stroke-width="1" transform="rotate(173.2 265.0 483.0)" opacity="0.9"/><ellipse cx="348.1" cy="485.5" rx="5" ry="3" fill="#fff" stroke="#ddd6c6" stroke-width="1" transform="rotate(105.6 265.0 483.0)" opacity="0.9"/><ellipse cx="328.5" cy="466.1" rx="5" ry="3" fill="#fff" stroke="#ddd6c6" stroke-width="1" transform="rotate(125.5 265.0 483.0)" opacity="0.9"/><ellipse cx="256.1" cy="478.5" rx="5" ry="3" fill="#fff" stroke="#ddd6c6" stroke-width="1" transform="rotate(64.3 265.0 483.0)" opacity="0.9"/><ellipse cx="287.2" cy="513.6" rx="5" ry="3" fill="#fff" stroke="#ddd6c6" stroke-width="1" transform="rotate(53.4 265.0 483.0)" opacity="0.9"/><ellipse cx="201.7" cy="493.8" rx="5" ry="3" fill="#fff" stroke="#ddd6c6" stroke-width="1" transform="rotate(53.7 265.0 483.0)" opacity="0.9"/><ellipse cx="265.8" cy="476.6" rx="5" ry="3" fill="#fff" stroke="#ddd6c6" stroke-width="1" transform="rotate(16.5 265.0 483.0)" opacity="0.9"/><rect x="164" y="426" width="202" height="64" rx="14" fill="#f2c23a"/><rect x="164" y="426" width="202" height="20" rx="10" fill="#f7d86c" opacity="0.8"/><rect x="243" y="422" width="44" height="106" fill="#1b2a1c"/><rect x="243" y="422" width="10" height="106" fill="#2e4230" opacity="0.8"/></g><g transform="rotate(-12 495 536)"><rect x="406" y="504" width="190" height="92" rx="40" fill="#000" opacity="0.4" filter="url(#soft)"/><rect x="400" y="500" width="190" height="86" rx="39.090909090909086" fill="#f5f2ea"/><ellipse cx="546.4" cy="557.6" rx="5" ry="3" fill="#fff" stroke="#ddd6c6" stroke-width="1" transform="rotate(2.7 495.0 543.0)" opacity="0.9"/><ellipse cx="508.1" cy="513.3" rx="5" ry="3" fill="#fff" stroke="#ddd6c6" stroke-width="1" transform="rotate(124.6 495.0 543.0)" opacity="0.9"/><ellipse cx="549.9" cy="548.7" rx="5" ry="3" fill="#fff" stroke="#ddd6c6" stroke-width="1" transform="rotate(1.5 495.0 543.0)" opacity="0.9"/><ellipse cx="469.5" cy="552.9" rx="5" ry="3" fill="#fff" stroke="#ddd6c6" stroke-width="1" transform="rotate(140.0 495.0 543.0)" opacity="0.9"/><ellipse cx="425.9" cy="560.6" rx="5" ry="3" fill="#fff" stroke="#ddd6c6" stroke-width="1" transform="rotate(35.0 495.0 543.0)" opacity="0.9"/><ellipse cx="541.4" cy="564.5" rx="5" ry="3" fill="#fff" stroke="#ddd6c6" stroke-width="1" transform="rotate(140.7 495.0 543.0)" opacity="0.9"/><ellipse cx="513.3" cy="507.4" rx="5" ry="3" fill="#fff" stroke="#ddd6c6" stroke-width="1" transform="rotate(59.7 495.0 543.0)" opacity="0.9"/><ellipse cx="413.9" cy="510.9" rx="5" ry="3" fill="#fff" stroke="#ddd6c6" stroke-width="1" transform="rotate(50.1 495.0 543.0)" opacity="0.9"/><ellipse cx="521.4" cy="522.4" rx="5" ry="3" fill="#fff" stroke="#ddd6c6" stroke-width="1" transform="rotate(134.5 495.0 543.0)" opacity="0.9"/><ellipse cx="535.4" cy="508.3" rx="5" ry="3" fill="#fff" stroke="#ddd6c6" stroke-width="1" transform="rotate(116.4 495.0 543.0)" opacity="0.9"/><ellipse cx="417.6" cy="553.2" rx="5" ry="3" fill="#fff" stroke="#ddd6c6" stroke-width="1" transform="rotate(177.8 495.0 543.0)" opacity="0.9"/><ellipse cx="526.7" cy="559.5" rx="5" ry="3" fill="#fff" stroke="#ddd6c6" stroke-width="1" transform="rotate(47.3 495.0 543.0)" opacity="0.9"/><ellipse cx="573.1" cy="572.3" rx="5" ry="3" fill="#fff" stroke="#ddd6c6" stroke-width="1" transform="rotate(79.4 495.0 543.0)" opacity="0.9"/><ellipse cx="461.9" cy="544.2" rx="5" ry="3" fill="#fff" stroke="#ddd6c6" stroke-width="1" transform="rotate(99.1 495.0 543.0)" opacity="0.9"/><ellipse cx="578.8" cy="519.9" rx="5" ry="3" fill="#fff" stroke="#ddd6c6" stroke-width="1" transform="rotate(76.5 495.0 543.0)" opacity="0.9"/><ellipse cx="495.3" cy="506.4" rx="5" ry="3" fill="#fff" stroke="#ddd6c6" stroke-width="1" transform="rotate(143.6 495.0 543.0)" opacity="0.9"/><ellipse cx="497.8" cy="563.0" rx="5" ry="3" fill="#fff" stroke="#ddd6c6" stroke-width="1" transform="rotate(4.3 495.0 543.0)" opacity="0.9"/><ellipse cx="528.8" cy="527.5" rx="5" ry="3" fill="#fff" stroke="#ddd6c6" stroke-width="1" transform="rotate(51.0 495.0 543.0)" opacity="0.9"/><ellipse cx="443.2" cy="565.0" rx="5" ry="3" fill="#fff" stroke="#ddd6c6" stroke-width="1" transform="rotate(160.5 495.0 543.0)" opacity="0.9"/><ellipse cx="507.8" cy="577.8" rx="5" ry="3" fill="#fff" stroke="#ddd6c6" stroke-width="1" transform="rotate(2.3 495.0 543.0)" opacity="0.9"/><ellipse cx="508.9" cy="537.8" rx="5" ry="3" fill="#fff" stroke="#ddd6c6" stroke-width="1" transform="rotate(114.4 495.0 543.0)" opacity="0.9"/><ellipse cx="481.4" cy="508.5" rx="5" ry="3" fill="#fff" stroke="#ddd6c6" stroke-width="1" transform="rotate(141.1 495.0 543.0)" opacity="0.9"/><ellipse cx="486.3" cy="574.4" rx="5" ry="3" fill="#fff" stroke="#ddd6c6" stroke-width="1" transform="rotate(10.2 495.0 543.0)" opacity="0.9"/><ellipse cx="465.8" cy="568.8" rx="5" ry="3" fill="#fff" stroke="#ddd6c6" stroke-width="1" transform="rotate(86.3 495.0 543.0)" opacity="0.9"/><ellipse cx="496.3" cy="555.9" rx="5" ry="3" fill="#fff" stroke="#ddd6c6" stroke-width="1" transform="rotate(142.6 495.0 543.0)" opacity="0.9"/><ellipse cx="464.3" cy="546.8" rx="5" ry="3" fill="#fff" stroke="#ddd6c6" stroke-width="1" transform="rotate(174.8 495.0 543.0)" opacity="0.9"/><ellipse cx="483.0" cy="567.0" rx="5" ry="3" fill="#fff" stroke="#ddd6c6" stroke-width="1" transform="rotate(97.4 495.0 543.0)" opacity="0.9"/><ellipse cx="476.4" cy="546.1" rx="5" ry="3" fill="#fff" stroke="#ddd6c6" stroke-width="1" transform="rotate(152.1 495.0 543.0)" opacity="0.9"/><ellipse cx="427.8" cy="570.9" rx="5" ry="3" fill="#fff" stroke="#ddd6c6" stroke-width="1" transform="rotate(77.7 495.0 543.0)" opacity="0.9"/><ellipse cx="541.0" cy="531.0" rx="5" ry="3" fill="#fff" stroke="#ddd6c6" stroke-width="1" transform="rotate(170.9 495.0 543.0)" opacity="0.9"/><ellipse cx="456.3" cy="546.9" rx="5" ry="3" fill="#fff" stroke="#ddd6c6" stroke-width="1" transform="rotate(175.0 495.0 543.0)" opacity="0.9"/><ellipse cx="519.9" cy="512.5" rx="5" ry="3" fill="#fff" stroke="#ddd6c6" stroke-width="1" transform="rotate(94.8 495.0 543.0)" opacity="0.9"/><ellipse cx="441.0" cy="562.3" rx="5" ry="3" fill="#fff" stroke="#ddd6c6" stroke-width="1" transform="rotate(135.1 495.0 543.0)" opacity="0.9"/><ellipse cx="528.4" cy="529.1" rx="5" ry="3" fill="#fff" stroke="#ddd6c6" stroke-width="1" transform="rotate(1.8 495.0 543.0)" opacity="0.9"/><ellipse cx="558.9" cy="565.0" rx="5" ry="3" fill="#fff" stroke="#ddd6c6" stroke-width="1" transform="rotate(74.7 495.0 543.0)" opacity="0.9"/><ellipse cx="541.7" cy="530.2" rx="5" ry="3" fill="#fff" stroke="#ddd6c6" stroke-width="1" transform="rotate(91.1 495.0 543.0)" opacity="0.9"/><ellipse cx="557.9" cy="543.3" rx="5" ry="3" fill="#fff" stroke="#ddd6c6" stroke-width="1" transform="rotate(147.6 495.0 543.0)" opacity="0.9"/><ellipse cx="462.6" cy="513.3" rx="5" ry="3" fill="#fff" stroke="#ddd6c6" stroke-width="1" transform="rotate(19.1 495.0 543.0)" opacity="0.9"/><ellipse cx="538.7" cy="514.1" rx="5" ry="3" fill="#fff" stroke="#ddd6c6" stroke-width="1" transform="rotate(52.9 495.0 543.0)" opacity="0.9"/><ellipse cx="520.4" cy="524.3" rx="5" ry="3" fill="#fff" stroke="#ddd6c6" stroke-width="1" transform="rotate(93.9 495.0 543.0)" opacity="0.9"/><path d="M390,520 Q495,470 600,520 Q495,560 390,520Z" fill="#f08a52"/><path d="M418,498 q12,24 4,50" stroke="#ffe0cc" stroke-width="7" fill="none" stroke-linecap="round" opacity="0.9"/><path d="M448,498 q12,24 4,50" stroke="#ffe0cc" stroke-width="7" fill="none" stroke-linecap="round" opacity="0.9"/><path d="M478,498 q12,24 4,50" stroke="#ffe0cc" stroke-width="7" fill="none" stroke-linecap="round" opacity="0.9"/><path d="M508,498 q12,24 4,50" stroke="#ffe0cc" stroke-width="7" fill="none" stroke-linecap="round" opacity="0.9"/><path d="M538,498 q12,24 4,50" stroke="#ffe0cc" stroke-width="7" fill="none" stroke-linecap="round" opacity="0.9"/><path d="M568,498 q12,24 4,50" stroke="#ffe0cc" stroke-width="7" fill="none" stroke-linecap="round" opacity="0.9"/><path d="M420,504 Q495,484 570,504" stroke="#fff" stroke-width="5" fill="none" opacity="0.45"/></g>
    <path d="M289.7,650.0C289.9,657.5 283.3,667.5 277.7,673.2C272.1,679.0 263.8,682.8 256.0,684.3C248.3,685.8 238.2,685.8 231.4,682.2C224.5,678.6 218.2,670.4 214.9,662.8C211.7,655.1 209.5,644.1 212.0,636.2C214.5,628.3 222.6,618.9 230.0,615.4C237.4,611.8 248.5,612.7 256.2,614.8C263.9,616.9 270.6,622.2 276.2,628.0C281.7,633.9 289.4,642.5 289.7,650.0Z" fill="#86b840"/><path d="M262.1,642.0C262.1,647.7 261.4,656.4 257.7,659.2C254.1,662.1 245.1,660.8 240.1,659.2C235.0,657.7 229.2,654.1 227.4,650.0C225.5,645.9 226.9,638.9 229.0,634.8C231.1,630.6 235.4,626.9 240.2,625.2C244.9,623.6 254.0,622.1 257.7,624.9C261.3,627.7 262.1,636.3 262.1,642.0Z" fill="#a3d25a"/>
    <path d="M602.1,699.2C601.7,706.7 596.9,715.9 591.4,720.1C585.8,724.4 575.6,726.3 568.8,724.8C562.0,723.2 554.1,717.4 550.4,710.9C546.6,704.3 543.0,691.4 546.1,685.4C549.2,679.4 561.1,676.6 569.1,674.8C577.1,673.1 588.4,671.0 593.9,675.1C599.4,679.1 602.5,691.7 602.1,699.2Z" fill="#f4b3b0" opacity="0.85" stroke="#e59a98" stroke-width="2"/><path d="M610.3,695.9C610.9,703.1 604.4,715.4 598.3,719.5C592.2,723.6 581.7,722.4 573.8,720.7C566.0,719.0 554.6,715.7 551.3,709.5C547.9,703.3 550.2,690.5 553.8,683.6C557.4,676.6 566.2,669.1 573.1,667.9C580.0,666.7 588.9,671.7 595.1,676.3C601.3,681.0 609.8,688.7 610.3,695.9Z" fill="#f4b3b0" opacity="0.85" stroke="#e59a98" stroke-width="2"/><path d="M595.7,708.1C596.2,715.5 588.0,726.8 581.3,731.9C574.5,737.0 563.2,740.2 555.3,738.5C547.4,736.8 537.7,729.2 533.9,721.7C530.1,714.3 528.8,700.9 532.4,693.7C536.0,686.5 547.8,679.5 555.5,678.5C563.2,677.4 572.0,682.5 578.7,687.4C585.4,692.3 595.3,700.6 595.7,708.1Z" fill="#f4b3b0" opacity="0.85" stroke="#e59a98" stroke-width="2"/><path d="M628.6,704.0C628.3,712.3 625.4,723.3 619.8,727.6C614.2,731.9 603.2,731.3 595.1,729.8C587.0,728.2 574.9,724.9 571.1,718.3C567.4,711.8 569.2,698.6 572.8,690.4C576.4,682.2 584.8,671.1 593.0,669.0C601.2,666.9 616.0,671.9 621.9,677.7C627.8,683.5 629.0,695.7 628.6,704.0Z" fill="#f4b3b0" opacity="0.85" stroke="#e59a98" stroke-width="2"/><path d="M626.0,728.4C625.8,737.0 622.4,749.4 616.5,753.6C610.7,757.7 598.4,755.7 590.7,753.5C583.1,751.4 573.3,746.8 570.5,740.9C567.8,734.9 571.2,724.7 574.4,717.8C577.7,710.8 582.6,701.8 589.8,699.2C597.0,696.5 611.7,696.8 617.8,701.7C623.8,706.6 626.2,719.7 626.0,728.4Z" fill="#f4b3b0" opacity="0.85" stroke="#e59a98" stroke-width="2"/><path d="M610.8,700.8C611.6,709.6 602.2,725.2 594.3,730.4C586.4,735.7 573.0,734.6 563.4,732.4C553.8,730.2 540.3,724.9 536.4,717.2C532.6,709.5 536.0,694.7 540.4,686.2C544.8,677.8 554.7,668.1 562.8,666.6C571.0,665.2 581.2,671.8 589.2,677.5C597.2,683.2 609.9,692.0 610.8,700.8Z" fill="#f4b3b0" opacity="0.85" stroke="#e59a98" stroke-width="2"/>
    <ellipse cx="660" cy="250" rx="80" ry="76" fill="#000" opacity="0.4" filter="url(#soft)"/>
    <circle cx="650" cy="240" r="78" fill="#f1ede4"/><circle cx="650" cy="240" r="58" fill="#3d1d0c"/><ellipse cx="628" cy="222" rx="18" ry="8" fill="#fff" opacity="0.25"/>
    <g transform="rotate(28 400 450)"><rect x="560" y="-40" width="16" height="560" rx="8" fill="url(#chop)"/><rect x="590" y="-30" width="16" height="560" rx="8" fill="url(#chop)"/></g>
    <rect width="800" height="900" fill="url(#light)"/><rect width="800" height="900" fill="url(#vignette)"/></svg>